<svg xmlns="http://www.w3.org/2000/svg" xmlns:xlink="http://www.w3.org/1999/xlink" viewBox="0,0,256,256" width="24px" height="24px" fill-rule="nonzero"><g fill="#525a6c" fill-rule="nonzero" stroke="none" stroke-width="1" stroke-linecap="butt" stroke-linejoin="miter" stroke-miterlimit="10" stroke-dasharray="" stroke-dashoffset="0" font-family="none" font-weight="none" font-size="none" text-anchor="none" style="mix-blend-mode: normal"><g transform="scale(8,8)"><path d="M3,7c-1.09375,0 -2,0.90625 -2,2v14c0,1.09375 0.90625,2 2,2h26c1.09375,0 2,-0.90625 2,-2v-14c0,-1.09375 -0.90625,-2 -2,-2zM3,9h26v14h-26zM5,11v2h2v-2zM9,11v2h2v-2zM13,11v2h2v-2zM17,11v2h2v-2zM21,11v2h2v-2zM25,11v2h2v-2zM5,15v2h4v-2zM11,15v2h2v-2zM15,15v2h2v-2zM19,15v2h2v-2zM23,15v2h4v-2zM5,19v2h4v-2zM11,19v2h10v-2zM23,19v2h4v-2z"></path></g></g></svg>